<mxfile host="app.diagrams.net" modified="2023-04-27T20:07:58.255Z" agent="Mozilla/5.0 (Windows NT 10.0; Win64; x64) AppleWebKit/537.36 (KHTML, like Gecko) Chrome/112.0.0.0 Safari/537.36" etag="8vND07MAk_fL4fs4kIlS" version="21.1.5" type="github">
  <diagram name="Page-1" id="kbMHBITd_mUWB7Md4vy2">
    <mxGraphModel dx="1969" dy="929" grid="1" gridSize="10" guides="1" tooltips="1" connect="1" arrows="1" fold="1" page="1" pageScale="1" pageWidth="850" pageHeight="1100" math="0" shadow="0">
      <root>
        <mxCell id="0" />
        <mxCell id="1" parent="0" />
        <mxCell id="-lbxAsiAiAEc6zOz8mcY-1" value="Online Event&amp;nbsp; Management System" style="swimlane;childLayout=stackLayout;resizeParent=1;resizeParentMax=0;startSize=20;html=1;" vertex="1" parent="1">
          <mxGeometry x="60" width="930" height="870" as="geometry" />
        </mxCell>
        <mxCell id="-lbxAsiAiAEc6zOz8mcY-2" value="Event Manager" style="swimlane;startSize=20;html=1;" vertex="1" parent="-lbxAsiAiAEc6zOz8mcY-1">
          <mxGeometry y="20" width="180" height="850" as="geometry" />
        </mxCell>
        <mxCell id="-lbxAsiAiAEc6zOz8mcY-71" style="edgeStyle=orthogonalEdgeStyle;rounded=0;orthogonalLoop=1;jettySize=auto;html=1;" edge="1" parent="-lbxAsiAiAEc6zOz8mcY-2" source="-lbxAsiAiAEc6zOz8mcY-67">
          <mxGeometry relative="1" as="geometry">
            <mxPoint x="50" y="570" as="targetPoint" />
          </mxGeometry>
        </mxCell>
        <mxCell id="-lbxAsiAiAEc6zOz8mcY-67" value="Admin review" style="rounded=0;whiteSpace=wrap;html=1;" vertex="1" parent="-lbxAsiAiAEc6zOz8mcY-2">
          <mxGeometry x="10" y="500" width="80" height="40" as="geometry" />
        </mxCell>
        <mxCell id="-lbxAsiAiAEc6zOz8mcY-72" value="" style="rhombus;whiteSpace=wrap;html=1;" vertex="1" parent="-lbxAsiAiAEc6zOz8mcY-2">
          <mxGeometry x="20" y="570" width="60" height="50" as="geometry" />
        </mxCell>
        <mxCell id="-lbxAsiAiAEc6zOz8mcY-81" value="Req for &lt;br&gt;recheck order" style="text;html=1;align=center;verticalAlign=middle;resizable=0;points=[];autosize=1;strokeColor=none;fillColor=none;" vertex="1" parent="-lbxAsiAiAEc6zOz8mcY-2">
          <mxGeometry x="35" y="675" width="100" height="40" as="geometry" />
        </mxCell>
        <mxCell id="-lbxAsiAiAEc6zOz8mcY-3" value="System" style="swimlane;startSize=20;html=1;" vertex="1" parent="-lbxAsiAiAEc6zOz8mcY-1">
          <mxGeometry x="180" y="20" width="130" height="850" as="geometry" />
        </mxCell>
        <mxCell id="-lbxAsiAiAEc6zOz8mcY-76" value="Sent confirmation&lt;br&gt;message" style="rounded=0;whiteSpace=wrap;html=1;" vertex="1" parent="-lbxAsiAiAEc6zOz8mcY-3">
          <mxGeometry x="20" y="575" width="90" height="40" as="geometry" />
        </mxCell>
        <mxCell id="-lbxAsiAiAEc6zOz8mcY-79" value="Notification&lt;br&gt;for recheck&amp;nbsp;" style="rounded=0;whiteSpace=wrap;html=1;" vertex="1" parent="-lbxAsiAiAEc6zOz8mcY-3">
          <mxGeometry x="20" y="680" width="90" height="40" as="geometry" />
        </mxCell>
        <mxCell id="-lbxAsiAiAEc6zOz8mcY-122" value="" style="edgeStyle=orthogonalEdgeStyle;rounded=0;orthogonalLoop=1;jettySize=auto;html=1;" edge="1" parent="-lbxAsiAiAEc6zOz8mcY-3" source="-lbxAsiAiAEc6zOz8mcY-111" target="-lbxAsiAiAEc6zOz8mcY-121">
          <mxGeometry relative="1" as="geometry" />
        </mxCell>
        <mxCell id="-lbxAsiAiAEc6zOz8mcY-111" value="Mark Paid" style="rounded=0;whiteSpace=wrap;html=1;" vertex="1" parent="-lbxAsiAiAEc6zOz8mcY-3">
          <mxGeometry x="20" y="750" width="82" height="45" as="geometry" />
        </mxCell>
        <mxCell id="-lbxAsiAiAEc6zOz8mcY-121" value="" style="ellipse;html=1;shape=endState;fillColor=#000000;strokeColor=#000033;" vertex="1" parent="-lbxAsiAiAEc6zOz8mcY-3">
          <mxGeometry x="51" y="820" width="20" height="20" as="geometry" />
        </mxCell>
        <mxCell id="-lbxAsiAiAEc6zOz8mcY-4" value="Customer" style="swimlane;startSize=20;html=1;" vertex="1" parent="-lbxAsiAiAEc6zOz8mcY-1">
          <mxGeometry x="310" y="20" width="620" height="850" as="geometry" />
        </mxCell>
        <mxCell id="-lbxAsiAiAEc6zOz8mcY-8" style="edgeStyle=orthogonalEdgeStyle;rounded=0;orthogonalLoop=1;jettySize=auto;html=1;entryX=0.5;entryY=0;entryDx=0;entryDy=0;" edge="1" parent="-lbxAsiAiAEc6zOz8mcY-4" source="-lbxAsiAiAEc6zOz8mcY-5" target="-lbxAsiAiAEc6zOz8mcY-6">
          <mxGeometry relative="1" as="geometry" />
        </mxCell>
        <mxCell id="-lbxAsiAiAEc6zOz8mcY-5" value="" style="ellipse;whiteSpace=wrap;html=1;strokeColor=#000033;fillColor=#000000;" vertex="1" parent="-lbxAsiAiAEc6zOz8mcY-4">
          <mxGeometry x="320" y="30" width="20" height="20" as="geometry" />
        </mxCell>
        <mxCell id="-lbxAsiAiAEc6zOz8mcY-10" style="edgeStyle=orthogonalEdgeStyle;rounded=0;orthogonalLoop=1;jettySize=auto;html=1;" edge="1" parent="-lbxAsiAiAEc6zOz8mcY-4" source="-lbxAsiAiAEc6zOz8mcY-6" target="-lbxAsiAiAEc6zOz8mcY-9">
          <mxGeometry relative="1" as="geometry" />
        </mxCell>
        <mxCell id="-lbxAsiAiAEc6zOz8mcY-6" value="" style="rhombus;whiteSpace=wrap;html=1;" vertex="1" parent="-lbxAsiAiAEc6zOz8mcY-4">
          <mxGeometry x="305" y="100" width="50" height="50" as="geometry" />
        </mxCell>
        <mxCell id="-lbxAsiAiAEc6zOz8mcY-22" style="edgeStyle=orthogonalEdgeStyle;rounded=0;orthogonalLoop=1;jettySize=auto;html=1;entryX=0.5;entryY=0;entryDx=0;entryDy=0;" edge="1" parent="-lbxAsiAiAEc6zOz8mcY-4" source="-lbxAsiAiAEc6zOz8mcY-7" target="-lbxAsiAiAEc6zOz8mcY-17">
          <mxGeometry relative="1" as="geometry" />
        </mxCell>
        <mxCell id="-lbxAsiAiAEc6zOz8mcY-7" value="Customer&lt;br&gt;login" style="rounded=0;whiteSpace=wrap;html=1;" vertex="1" parent="-lbxAsiAiAEc6zOz8mcY-4">
          <mxGeometry x="500" y="160" width="70" height="30" as="geometry" />
        </mxCell>
        <mxCell id="-lbxAsiAiAEc6zOz8mcY-11" style="edgeStyle=orthogonalEdgeStyle;rounded=0;orthogonalLoop=1;jettySize=auto;html=1;entryX=0.6;entryY=-0.067;entryDx=0;entryDy=0;entryPerimeter=0;" edge="1" parent="-lbxAsiAiAEc6zOz8mcY-4" source="-lbxAsiAiAEc6zOz8mcY-9" target="-lbxAsiAiAEc6zOz8mcY-7">
          <mxGeometry relative="1" as="geometry" />
        </mxCell>
        <mxCell id="-lbxAsiAiAEc6zOz8mcY-15" style="edgeStyle=orthogonalEdgeStyle;rounded=0;orthogonalLoop=1;jettySize=auto;html=1;exitX=0.5;exitY=1;exitDx=0;exitDy=0;" edge="1" parent="-lbxAsiAiAEc6zOz8mcY-4" source="-lbxAsiAiAEc6zOz8mcY-9" target="-lbxAsiAiAEc6zOz8mcY-14">
          <mxGeometry relative="1" as="geometry" />
        </mxCell>
        <mxCell id="-lbxAsiAiAEc6zOz8mcY-9" value="" style="rhombus;whiteSpace=wrap;html=1;" vertex="1" parent="-lbxAsiAiAEc6zOz8mcY-4">
          <mxGeometry x="410" y="100" width="50" height="50" as="geometry" />
        </mxCell>
        <mxCell id="-lbxAsiAiAEc6zOz8mcY-12" value="User&lt;br&gt;Account&lt;br&gt;login" style="text;html=1;align=center;verticalAlign=middle;resizable=0;points=[];autosize=1;strokeColor=none;fillColor=none;" vertex="1" parent="-lbxAsiAiAEc6zOz8mcY-4">
          <mxGeometry x="350" y="70" width="70" height="60" as="geometry" />
        </mxCell>
        <mxCell id="-lbxAsiAiAEc6zOz8mcY-20" style="edgeStyle=orthogonalEdgeStyle;rounded=0;orthogonalLoop=1;jettySize=auto;html=1;entryX=0;entryY=0.5;entryDx=0;entryDy=0;" edge="1" parent="-lbxAsiAiAEc6zOz8mcY-4" source="-lbxAsiAiAEc6zOz8mcY-14" target="-lbxAsiAiAEc6zOz8mcY-17">
          <mxGeometry relative="1" as="geometry" />
        </mxCell>
        <mxCell id="-lbxAsiAiAEc6zOz8mcY-14" value="Registration&lt;br&gt;&amp;amp; Create account" style="rounded=0;whiteSpace=wrap;html=1;" vertex="1" parent="-lbxAsiAiAEc6zOz8mcY-4">
          <mxGeometry x="400" y="220" width="70" height="50" as="geometry" />
        </mxCell>
        <mxCell id="-lbxAsiAiAEc6zOz8mcY-16" value="New User" style="text;html=1;align=center;verticalAlign=middle;resizable=0;points=[];autosize=1;strokeColor=none;fillColor=none;" vertex="1" parent="-lbxAsiAiAEc6zOz8mcY-4">
          <mxGeometry x="365" y="170" width="80" height="30" as="geometry" />
        </mxCell>
        <mxCell id="-lbxAsiAiAEc6zOz8mcY-29" style="edgeStyle=orthogonalEdgeStyle;rounded=0;orthogonalLoop=1;jettySize=auto;html=1;exitX=0.5;exitY=1;exitDx=0;exitDy=0;entryX=0.413;entryY=-0.086;entryDx=0;entryDy=0;entryPerimeter=0;" edge="1" parent="-lbxAsiAiAEc6zOz8mcY-4" source="-lbxAsiAiAEc6zOz8mcY-17" target="-lbxAsiAiAEc6zOz8mcY-28">
          <mxGeometry relative="1" as="geometry" />
        </mxCell>
        <mxCell id="-lbxAsiAiAEc6zOz8mcY-17" value="" style="rhombus;whiteSpace=wrap;html=1;" vertex="1" parent="-lbxAsiAiAEc6zOz8mcY-4">
          <mxGeometry x="507.5" y="230" width="55" height="50" as="geometry" />
        </mxCell>
        <mxCell id="-lbxAsiAiAEc6zOz8mcY-48" style="edgeStyle=orthogonalEdgeStyle;rounded=0;orthogonalLoop=1;jettySize=auto;html=1;" edge="1" parent="-lbxAsiAiAEc6zOz8mcY-4" source="-lbxAsiAiAEc6zOz8mcY-28">
          <mxGeometry relative="1" as="geometry">
            <mxPoint x="450" y="403" as="targetPoint" />
          </mxGeometry>
        </mxCell>
        <mxCell id="-lbxAsiAiAEc6zOz8mcY-28" value="Show dashboard" style="rounded=0;whiteSpace=wrap;html=1;" vertex="1" parent="-lbxAsiAiAEc6zOz8mcY-4">
          <mxGeometry x="420" y="320" width="80" height="35" as="geometry" />
        </mxCell>
        <mxCell id="-lbxAsiAiAEc6zOz8mcY-56" style="edgeStyle=orthogonalEdgeStyle;rounded=0;orthogonalLoop=1;jettySize=auto;html=1;entryX=0.175;entryY=-0.125;entryDx=0;entryDy=0;entryPerimeter=0;exitX=0;exitY=0.5;exitDx=0;exitDy=0;" edge="1" parent="-lbxAsiAiAEc6zOz8mcY-4" source="-lbxAsiAiAEc6zOz8mcY-50" target="-lbxAsiAiAEc6zOz8mcY-52">
          <mxGeometry relative="1" as="geometry">
            <Array as="points">
              <mxPoint x="105" y="165" />
              <mxPoint x="105" y="200" />
              <mxPoint x="59" y="200" />
            </Array>
          </mxGeometry>
        </mxCell>
        <mxCell id="-lbxAsiAiAEc6zOz8mcY-59" style="edgeStyle=orthogonalEdgeStyle;rounded=0;orthogonalLoop=1;jettySize=auto;html=1;entryX=0.657;entryY=-0.075;entryDx=0;entryDy=0;entryPerimeter=0;" edge="1" parent="-lbxAsiAiAEc6zOz8mcY-4" source="-lbxAsiAiAEc6zOz8mcY-50" target="-lbxAsiAiAEc6zOz8mcY-53">
          <mxGeometry relative="1" as="geometry">
            <Array as="points">
              <mxPoint x="200" y="160" />
              <mxPoint x="200" y="200" />
              <mxPoint x="226" y="200" />
            </Array>
          </mxGeometry>
        </mxCell>
        <mxCell id="-lbxAsiAiAEc6zOz8mcY-50" value="" style="rhombus;whiteSpace=wrap;html=1;" vertex="1" parent="-lbxAsiAiAEc6zOz8mcY-4">
          <mxGeometry x="125" y="140" width="55" height="50" as="geometry" />
        </mxCell>
        <mxCell id="-lbxAsiAiAEc6zOz8mcY-61" style="edgeStyle=orthogonalEdgeStyle;rounded=0;orthogonalLoop=1;jettySize=auto;html=1;entryX=0;entryY=0.5;entryDx=0;entryDy=0;" edge="1" parent="-lbxAsiAiAEc6zOz8mcY-4" source="-lbxAsiAiAEc6zOz8mcY-52" target="-lbxAsiAiAEc6zOz8mcY-60">
          <mxGeometry relative="1" as="geometry" />
        </mxCell>
        <mxCell id="-lbxAsiAiAEc6zOz8mcY-52" value="Search&lt;br&gt;&amp;amp; select event" style="rounded=0;whiteSpace=wrap;html=1;" vertex="1" parent="-lbxAsiAiAEc6zOz8mcY-4">
          <mxGeometry x="45" y="220" width="80" height="40" as="geometry" />
        </mxCell>
        <mxCell id="-lbxAsiAiAEc6zOz8mcY-62" style="edgeStyle=orthogonalEdgeStyle;rounded=0;orthogonalLoop=1;jettySize=auto;html=1;entryX=1;entryY=0.5;entryDx=0;entryDy=0;" edge="1" parent="-lbxAsiAiAEc6zOz8mcY-4" source="-lbxAsiAiAEc6zOz8mcY-53" target="-lbxAsiAiAEc6zOz8mcY-60">
          <mxGeometry relative="1" as="geometry" />
        </mxCell>
        <mxCell id="-lbxAsiAiAEc6zOz8mcY-53" value="Update event" style="rounded=0;whiteSpace=wrap;html=1;" vertex="1" parent="-lbxAsiAiAEc6zOz8mcY-4">
          <mxGeometry x="180" y="220" width="70" height="40" as="geometry" />
        </mxCell>
        <mxCell id="-lbxAsiAiAEc6zOz8mcY-116" style="edgeStyle=orthogonalEdgeStyle;rounded=0;orthogonalLoop=1;jettySize=auto;html=1;entryX=0.5;entryY=0;entryDx=0;entryDy=0;" edge="1" parent="-lbxAsiAiAEc6zOz8mcY-4" source="-lbxAsiAiAEc6zOz8mcY-60" target="-lbxAsiAiAEc6zOz8mcY-115">
          <mxGeometry relative="1" as="geometry" />
        </mxCell>
        <mxCell id="-lbxAsiAiAEc6zOz8mcY-60" value="" style="rhombus;whiteSpace=wrap;html=1;" vertex="1" parent="-lbxAsiAiAEc6zOz8mcY-4">
          <mxGeometry x="125" y="290" width="60" height="50" as="geometry" />
        </mxCell>
        <mxCell id="-lbxAsiAiAEc6zOz8mcY-64" value="Existing&lt;br&gt;event" style="text;html=1;align=center;verticalAlign=middle;resizable=0;points=[];autosize=1;strokeColor=none;fillColor=none;" vertex="1" parent="-lbxAsiAiAEc6zOz8mcY-4">
          <mxGeometry x="195" y="160" width="70" height="40" as="geometry" />
        </mxCell>
        <mxCell id="-lbxAsiAiAEc6zOz8mcY-105" style="edgeStyle=orthogonalEdgeStyle;rounded=0;orthogonalLoop=1;jettySize=auto;html=1;" edge="1" parent="-lbxAsiAiAEc6zOz8mcY-4" source="-lbxAsiAiAEc6zOz8mcY-82" target="-lbxAsiAiAEc6zOz8mcY-104">
          <mxGeometry relative="1" as="geometry" />
        </mxCell>
        <mxCell id="-lbxAsiAiAEc6zOz8mcY-82" value="" style="rhombus;whiteSpace=wrap;html=1;" vertex="1" parent="-lbxAsiAiAEc6zOz8mcY-4">
          <mxGeometry x="50" y="620" width="80" height="80" as="geometry" />
        </mxCell>
        <mxCell id="-lbxAsiAiAEc6zOz8mcY-87" value="Notification board" style="rounded=0;whiteSpace=wrap;html=1;" vertex="1" parent="-lbxAsiAiAEc6zOz8mcY-4">
          <mxGeometry x="365" y="430" width="80" height="40" as="geometry" />
        </mxCell>
        <mxCell id="-lbxAsiAiAEc6zOz8mcY-88" value="Admin&amp;nbsp;&lt;br&gt;Review" style="text;html=1;align=center;verticalAlign=middle;resizable=0;points=[];autosize=1;strokeColor=none;fillColor=none;" vertex="1" parent="-lbxAsiAiAEc6zOz8mcY-4">
          <mxGeometry x="120" y="590" width="60" height="40" as="geometry" />
        </mxCell>
        <mxCell id="-lbxAsiAiAEc6zOz8mcY-89" value="" style="line;strokeWidth=4;html=1;perimeter=backbonePerimeter;points=[];outlineConnect=0;" vertex="1" parent="-lbxAsiAiAEc6zOz8mcY-4">
          <mxGeometry x="385" y="400" width="160" height="10" as="geometry" />
        </mxCell>
        <mxCell id="-lbxAsiAiAEc6zOz8mcY-90" value="" style="line;strokeWidth=4;html=1;perimeter=backbonePerimeter;points=[];outlineConnect=0;" vertex="1" parent="-lbxAsiAiAEc6zOz8mcY-4">
          <mxGeometry x="385" y="485" width="160" height="10" as="geometry" />
        </mxCell>
        <mxCell id="-lbxAsiAiAEc6zOz8mcY-91" value="Order &lt;br&gt;Board" style="rounded=0;whiteSpace=wrap;html=1;" vertex="1" parent="-lbxAsiAiAEc6zOz8mcY-4">
          <mxGeometry x="465" y="430" width="75" height="40" as="geometry" />
        </mxCell>
        <mxCell id="-lbxAsiAiAEc6zOz8mcY-69" value="Sent confirmation" style="text;html=1;align=center;verticalAlign=middle;resizable=0;points=[];autosize=1;strokeColor=none;fillColor=none;" vertex="1" parent="-lbxAsiAiAEc6zOz8mcY-4">
          <mxGeometry x="40" y="355" width="120" height="30" as="geometry" />
        </mxCell>
        <mxCell id="-lbxAsiAiAEc6zOz8mcY-98" style="edgeStyle=orthogonalEdgeStyle;rounded=0;orthogonalLoop=1;jettySize=auto;html=1;entryX=0.5;entryY=0;entryDx=0;entryDy=0;" edge="1" parent="-lbxAsiAiAEc6zOz8mcY-4" source="-lbxAsiAiAEc6zOz8mcY-90" target="-lbxAsiAiAEc6zOz8mcY-50">
          <mxGeometry relative="1" as="geometry">
            <mxPoint x="410" y="570" as="sourcePoint" />
            <Array as="points">
              <mxPoint x="465" y="510" />
              <mxPoint x="280" y="510" />
              <mxPoint x="280" y="120" />
              <mxPoint x="153" y="120" />
            </Array>
          </mxGeometry>
        </mxCell>
        <mxCell id="-lbxAsiAiAEc6zOz8mcY-94" value="" style="endArrow=classic;html=1;rounded=0;entryX=0.5;entryY=0;entryDx=0;entryDy=0;" edge="1" parent="-lbxAsiAiAEc6zOz8mcY-4" target="-lbxAsiAiAEc6zOz8mcY-87">
          <mxGeometry width="50" height="50" relative="1" as="geometry">
            <mxPoint x="410" y="405" as="sourcePoint" />
            <mxPoint x="410" y="420" as="targetPoint" />
          </mxGeometry>
        </mxCell>
        <mxCell id="-lbxAsiAiAEc6zOz8mcY-95" value="" style="endArrow=classic;html=1;rounded=0;entryX=0.387;entryY=-0.05;entryDx=0;entryDy=0;entryPerimeter=0;" edge="1" parent="-lbxAsiAiAEc6zOz8mcY-4" source="-lbxAsiAiAEc6zOz8mcY-89" target="-lbxAsiAiAEc6zOz8mcY-91">
          <mxGeometry width="50" height="50" relative="1" as="geometry">
            <mxPoint x="420" y="415" as="sourcePoint" />
            <mxPoint x="415" y="440" as="targetPoint" />
          </mxGeometry>
        </mxCell>
        <mxCell id="-lbxAsiAiAEc6zOz8mcY-97" value="" style="endArrow=classic;html=1;rounded=0;exitX=0.5;exitY=1;exitDx=0;exitDy=0;" edge="1" parent="-lbxAsiAiAEc6zOz8mcY-4" source="-lbxAsiAiAEc6zOz8mcY-91" target="-lbxAsiAiAEc6zOz8mcY-90">
          <mxGeometry width="50" height="50" relative="1" as="geometry">
            <mxPoint x="430" y="425" as="sourcePoint" />
            <mxPoint x="425" y="450" as="targetPoint" />
          </mxGeometry>
        </mxCell>
        <mxCell id="-lbxAsiAiAEc6zOz8mcY-117" style="edgeStyle=orthogonalEdgeStyle;rounded=0;orthogonalLoop=1;jettySize=auto;html=1;entryX=1;entryY=0.5;entryDx=0;entryDy=0;" edge="1" parent="-lbxAsiAiAEc6zOz8mcY-4" source="-lbxAsiAiAEc6zOz8mcY-102" target="-lbxAsiAiAEc6zOz8mcY-115">
          <mxGeometry relative="1" as="geometry">
            <Array as="points">
              <mxPoint x="440" y="540" />
              <mxPoint x="190" y="540" />
              <mxPoint x="190" y="465" />
            </Array>
          </mxGeometry>
        </mxCell>
        <mxCell id="-lbxAsiAiAEc6zOz8mcY-102" value="Update order" style="rounded=0;whiteSpace=wrap;html=1;" vertex="1" parent="-lbxAsiAiAEc6zOz8mcY-4">
          <mxGeometry x="390" y="610" width="100" height="50" as="geometry" />
        </mxCell>
        <mxCell id="-lbxAsiAiAEc6zOz8mcY-107" style="edgeStyle=orthogonalEdgeStyle;rounded=0;orthogonalLoop=1;jettySize=auto;html=1;entryX=0;entryY=0.5;entryDx=0;entryDy=0;" edge="1" parent="-lbxAsiAiAEc6zOz8mcY-4" source="-lbxAsiAiAEc6zOz8mcY-104" target="-lbxAsiAiAEc6zOz8mcY-102">
          <mxGeometry relative="1" as="geometry">
            <mxPoint x="340" y="630" as="targetPoint" />
          </mxGeometry>
        </mxCell>
        <mxCell id="-lbxAsiAiAEc6zOz8mcY-109" style="edgeStyle=orthogonalEdgeStyle;rounded=0;orthogonalLoop=1;jettySize=auto;html=1;" edge="1" parent="-lbxAsiAiAEc6zOz8mcY-4" source="-lbxAsiAiAEc6zOz8mcY-104">
          <mxGeometry relative="1" as="geometry">
            <mxPoint x="240" y="700" as="targetPoint" />
          </mxGeometry>
        </mxCell>
        <mxCell id="-lbxAsiAiAEc6zOz8mcY-104" value="" style="rhombus;whiteSpace=wrap;html=1;" vertex="1" parent="-lbxAsiAiAEc6zOz8mcY-4">
          <mxGeometry x="200" y="590" width="80" height="80" as="geometry" />
        </mxCell>
        <mxCell id="-lbxAsiAiAEc6zOz8mcY-110" value="Provide Card&amp;nbsp;&lt;br&gt;details" style="rounded=0;whiteSpace=wrap;html=1;" vertex="1" parent="-lbxAsiAiAEc6zOz8mcY-4">
          <mxGeometry x="200" y="700" width="105" height="50" as="geometry" />
        </mxCell>
        <mxCell id="-lbxAsiAiAEc6zOz8mcY-114" value="Admin&amp;nbsp;&lt;br&gt;approved" style="text;html=1;align=center;verticalAlign=middle;resizable=0;points=[];autosize=1;strokeColor=none;fillColor=none;" vertex="1" parent="-lbxAsiAiAEc6zOz8mcY-4">
          <mxGeometry x="235" y="660" width="70" height="40" as="geometry" />
        </mxCell>
        <mxCell id="-lbxAsiAiAEc6zOz8mcY-99" value="Order&lt;br&gt;select" style="text;html=1;align=center;verticalAlign=middle;resizable=0;points=[];autosize=1;strokeColor=none;fillColor=none;" vertex="1" parent="-lbxAsiAiAEc6zOz8mcY-4">
          <mxGeometry x="305" y="460" width="50" height="40" as="geometry" />
        </mxCell>
        <mxCell id="-lbxAsiAiAEc6zOz8mcY-115" value="" style="rhombus;whiteSpace=wrap;html=1;" vertex="1" parent="-lbxAsiAiAEc6zOz8mcY-4">
          <mxGeometry x="110" y="440" width="60" height="50" as="geometry" />
        </mxCell>
        <mxCell id="-lbxAsiAiAEc6zOz8mcY-119" value="Recheck&amp;nbsp;&lt;br&gt;order req" style="text;html=1;align=center;verticalAlign=middle;resizable=0;points=[];autosize=1;strokeColor=none;fillColor=none;" vertex="1" parent="-lbxAsiAiAEc6zOz8mcY-4">
          <mxGeometry x="205" y="500" width="70" height="40" as="geometry" />
        </mxCell>
        <mxCell id="-lbxAsiAiAEc6zOz8mcY-74" style="edgeStyle=orthogonalEdgeStyle;rounded=0;orthogonalLoop=1;jettySize=auto;html=1;" edge="1" parent="-lbxAsiAiAEc6zOz8mcY-1" source="-lbxAsiAiAEc6zOz8mcY-72">
          <mxGeometry relative="1" as="geometry">
            <mxPoint x="200" y="615" as="targetPoint" />
          </mxGeometry>
        </mxCell>
        <mxCell id="-lbxAsiAiAEc6zOz8mcY-80" style="edgeStyle=orthogonalEdgeStyle;rounded=0;orthogonalLoop=1;jettySize=auto;html=1;entryX=0;entryY=0.75;entryDx=0;entryDy=0;" edge="1" parent="-lbxAsiAiAEc6zOz8mcY-1" source="-lbxAsiAiAEc6zOz8mcY-72" target="-lbxAsiAiAEc6zOz8mcY-79">
          <mxGeometry relative="1" as="geometry">
            <Array as="points">
              <mxPoint x="50" y="730" />
            </Array>
          </mxGeometry>
        </mxCell>
        <mxCell id="-lbxAsiAiAEc6zOz8mcY-83" style="edgeStyle=orthogonalEdgeStyle;rounded=0;orthogonalLoop=1;jettySize=auto;html=1;entryX=0.5;entryY=0;entryDx=0;entryDy=0;" edge="1" parent="-lbxAsiAiAEc6zOz8mcY-1" source="-lbxAsiAiAEc6zOz8mcY-76" target="-lbxAsiAiAEc6zOz8mcY-82">
          <mxGeometry relative="1" as="geometry" />
        </mxCell>
        <mxCell id="-lbxAsiAiAEc6zOz8mcY-84" style="edgeStyle=orthogonalEdgeStyle;rounded=0;orthogonalLoop=1;jettySize=auto;html=1;entryX=0.5;entryY=1;entryDx=0;entryDy=0;" edge="1" parent="-lbxAsiAiAEc6zOz8mcY-1" source="-lbxAsiAiAEc6zOz8mcY-79" target="-lbxAsiAiAEc6zOz8mcY-82">
          <mxGeometry relative="1" as="geometry" />
        </mxCell>
        <mxCell id="-lbxAsiAiAEc6zOz8mcY-112" style="edgeStyle=orthogonalEdgeStyle;rounded=0;orthogonalLoop=1;jettySize=auto;html=1;" edge="1" parent="-lbxAsiAiAEc6zOz8mcY-1" source="-lbxAsiAiAEc6zOz8mcY-110" target="-lbxAsiAiAEc6zOz8mcY-111">
          <mxGeometry relative="1" as="geometry">
            <Array as="points">
              <mxPoint x="563" y="790" />
            </Array>
          </mxGeometry>
        </mxCell>
        <mxCell id="-lbxAsiAiAEc6zOz8mcY-118" style="edgeStyle=orthogonalEdgeStyle;rounded=0;orthogonalLoop=1;jettySize=auto;html=1;" edge="1" parent="-lbxAsiAiAEc6zOz8mcY-1" source="-lbxAsiAiAEc6zOz8mcY-115" target="-lbxAsiAiAEc6zOz8mcY-67">
          <mxGeometry relative="1" as="geometry" />
        </mxCell>
        <mxCell id="-lbxAsiAiAEc6zOz8mcY-13" value="Exist account" style="text;html=1;align=center;verticalAlign=middle;resizable=0;points=[];autosize=1;strokeColor=none;fillColor=none;" vertex="1" parent="1">
          <mxGeometry x="835" y="115" width="90" height="30" as="geometry" />
        </mxCell>
        <mxCell id="-lbxAsiAiAEc6zOz8mcY-30" value="Login" style="text;html=1;align=center;verticalAlign=middle;resizable=0;points=[];autosize=1;strokeColor=none;fillColor=none;" vertex="1" parent="1">
          <mxGeometry x="885" y="295" width="50" height="30" as="geometry" />
        </mxCell>
        <mxCell id="-lbxAsiAiAEc6zOz8mcY-63" value="New&lt;br&gt;Event" style="text;html=1;align=center;verticalAlign=middle;resizable=0;points=[];autosize=1;strokeColor=none;fillColor=none;" vertex="1" parent="1">
          <mxGeometry x="400" y="170" width="50" height="40" as="geometry" />
        </mxCell>
        <mxCell id="-lbxAsiAiAEc6zOz8mcY-75" value="Approved" style="text;html=1;align=center;verticalAlign=middle;resizable=0;points=[];autosize=1;strokeColor=none;fillColor=none;" vertex="1" parent="1">
          <mxGeometry x="135" y="585" width="70" height="30" as="geometry" />
        </mxCell>
        <mxCell id="-lbxAsiAiAEc6zOz8mcY-96" value="" style="endArrow=classic;html=1;rounded=0;" edge="1" parent="1" target="-lbxAsiAiAEc6zOz8mcY-90">
          <mxGeometry width="50" height="50" relative="1" as="geometry">
            <mxPoint x="790" y="490" as="sourcePoint" />
            <mxPoint x="785" y="460" as="targetPoint" />
          </mxGeometry>
        </mxCell>
        <mxCell id="-lbxAsiAiAEc6zOz8mcY-113" value="req &lt;br&gt;recheck order" style="text;html=1;align=center;verticalAlign=middle;resizable=0;points=[];autosize=1;strokeColor=none;fillColor=none;" vertex="1" parent="1">
          <mxGeometry x="640" y="610" width="100" height="40" as="geometry" />
        </mxCell>
      </root>
    </mxGraphModel>
  </diagram>
</mxfile>
